<svg width="982" height="154" viewBox="0 0 982 154" fill="none" xmlns="http://www.w3.org/2000/svg">
<g clip-path="url(#clip0_4216_2)">
<path d="M120.22 151.298V67.5439L82.5912 151.298H62.1003L24.365 68.3274V151.298H0.0952148V28.7197H30.8316L72.878 121.768L114.765 28.7197H144.889V151.298H120.22Z" fill="black"/>
<path d="M157.104 50.6313V28.666H182.412V50.6313H157.104ZM157.29 151.299V61.6815H181.959V151.299H157.29Z" fill="black"/>
<path d="M257.217 87.5641C256.664 85.7494 255.744 84.0719 254.516 82.639C253.288 81.2061 251.779 80.0493 250.085 79.2426C245.389 77.2208 240.305 76.2975 235.209 76.5409C221.513 76.5409 214.665 79.6299 214.665 85.8079C214.659 87.0336 215.019 88.2323 215.699 89.2455C216.378 90.2586 217.345 91.0384 218.471 91.4816C223.159 93.3121 228.06 94.5199 233.054 95.0749L244.47 96.8041C252.4 97.747 260.185 99.6799 267.649 102.559C272.275 104.293 276.28 107.4 279.145 111.475C281.52 115.558 282.701 120.243 282.551 124.983C282.754 129.298 281.799 133.587 279.788 137.394C277.778 141.2 274.787 144.381 271.135 146.597C263.506 151.461 252.241 153.892 237.338 153.892C222.436 153.892 210.851 151.316 202.583 146.165C198.602 143.617 195.259 140.165 192.816 136.082C190.373 131.998 188.898 127.394 188.506 122.633H212.19C213.964 131.224 222.241 135.52 237.019 135.52C242.626 135.822 248.239 135.062 253.571 133.278C255.071 132.793 256.378 131.834 257.302 130.541C258.227 129.248 258.719 127.689 258.707 126.091C258.67 124.794 258.246 123.538 257.49 122.491C256.735 121.444 255.684 120.655 254.476 120.228C249.662 118.359 244.623 117.15 239.494 116.635L228.849 115.095C215.047 112.916 205.36 109.682 199.789 105.396C194.218 101.109 191.451 94.7957 191.486 86.4563C191.402 82.3359 192.428 78.2703 194.454 74.699C196.481 71.1277 199.43 68.1865 202.983 66.1932C210.647 61.384 221.38 58.9795 235.183 58.9795C248.542 58.9795 258.867 61.0688 266.159 65.2475C269.768 67.336 272.912 70.1625 275.39 73.5481C277.868 76.9338 279.627 80.8048 280.555 84.9163L257.217 87.5641Z" fill="black"/>
<path d="M382.318 118.877C381.74 124.006 380.133 128.96 377.598 133.434C375.062 137.909 371.651 141.809 367.575 144.895C359.415 151.037 348.601 154.099 335.136 154.081C319.346 154.081 307.069 149.992 298.305 141.815C289.541 133.638 285.106 122.101 285 107.205C284.829 98.4408 286.882 89.7789 290.961 82.0521C294.969 74.7667 301.017 68.8526 308.338 65.0581C316.73 60.7948 326.021 58.6801 335.402 58.8981C347.821 58.8981 357.969 61.6719 365.846 67.2195C369.747 69.9941 373.071 73.5219 375.628 77.6015C378.185 81.681 379.925 86.2322 380.748 90.9949L355.92 93.9128C354.888 89.3498 352.341 85.286 348.708 82.4034C344.817 79.6462 340.143 78.2606 335.402 78.4588C332.012 78.2775 328.624 78.851 325.475 80.1391C322.326 81.4272 319.492 83.3987 317.173 85.9157C312.505 91.6736 310.14 99.0029 310.547 106.449C310.547 115.365 312.729 122.254 317.093 127.117C319.465 129.623 322.346 131.576 325.534 132.84C328.723 134.104 332.145 134.65 335.562 134.439C340.712 134.671 345.804 133.253 350.118 130.387C352.002 129.029 353.603 127.305 354.827 125.316C356.051 123.327 356.875 121.111 357.25 118.796L382.318 118.877Z" fill="black"/>
<path d="M388.625 151.298V61.6806H412.575V76.2701C421.056 65.4631 431.479 60.0596 443.844 60.0596C447.064 60.0947 450.276 60.3838 453.451 60.9242L450.63 82.2139C447.48 81.5364 444.27 81.1924 441.05 81.1873C433.56 80.9046 426.235 83.467 420.506 88.374C418.207 90.3009 416.35 92.7129 415.064 95.4425C413.777 98.172 413.091 101.153 413.054 104.179V151.298H388.625Z" fill="black"/>
<path d="M470.722 112.636C470.758 116.847 471.997 120.958 474.288 124.469C476.638 127.996 479.897 130.799 483.708 132.575C488.101 134.596 492.884 135.593 497.706 135.493C510.604 135.493 518.587 131.431 521.657 123.308H544.676C543.814 128.025 542.009 132.514 539.373 136.496C536.737 140.478 533.325 143.87 529.347 146.462C521.47 151.523 510.63 154.045 496.828 154.027C481.145 154.027 468.974 149.965 460.317 141.842C451.659 133.718 447.33 122.326 447.33 107.665C447.176 98.8918 449.257 90.2273 453.371 82.5112C457.387 75.1426 463.424 69.1168 470.748 65.1659C478.958 60.8357 488.111 58.6797 497.36 58.8979C512.795 58.8979 524.735 62.9325 533.179 71.0017C541.624 79.071 545.847 90.3823 545.847 104.936V112.663L470.722 112.636ZM522.881 96.9926C522.901 94.1519 522.267 91.3458 521.029 88.7984C519.79 86.2511 517.982 84.0332 515.749 82.3221C510.195 78.5245 503.566 76.6831 496.881 77.0807C490.595 76.8973 484.436 78.899 479.424 82.7544C477.172 84.4145 475.295 86.5433 473.918 88.9986C472.542 91.454 471.697 94.1793 471.44 96.9926H522.881Z" fill="black"/>
<path d="M619.641 151.298V139.113C614.984 143.872 609.438 147.638 603.328 150.19C596.966 152.644 590.2 153.837 583.396 153.703C572.024 153.703 563.304 151.334 557.236 146.597C554.228 144.192 551.831 141.089 550.248 137.549C548.664 134.009 547.94 130.136 548.135 126.253C547.913 121.828 548.909 117.427 551.009 113.543C553.11 109.659 556.234 106.445 560.031 104.261C567.996 99.4515 580.53 96.8218 597.633 96.3715L618.922 95.8582V92.427C619.047 90.199 618.626 87.9744 617.697 85.9518C616.769 83.9293 615.361 82.1718 613.6 80.8364C609.141 77.8707 603.858 76.449 598.538 76.7838C586.119 76.7838 578.668 80.4492 576.184 87.78L553.83 85.5645C554.513 81.3571 556.128 77.362 558.553 73.8801C560.977 70.3982 564.149 67.5204 567.828 65.4635C575.386 61.1046 585.897 58.9342 599.363 58.9523C628.192 58.9523 642.598 70.7409 642.58 94.3182V151.298H619.641ZM618.816 110.961L598.138 111.474C589.197 111.69 582.651 112.879 578.499 114.987C576.647 115.768 575.067 117.093 573.962 118.792C572.857 120.492 572.278 122.488 572.299 124.524C572.242 126.211 572.635 127.881 573.436 129.36C574.237 130.839 575.416 132.071 576.849 132.926C580.93 135.14 585.538 136.15 590.155 135.844C594.467 135.888 598.762 135.287 602.902 134.061C606.47 132.995 609.791 131.213 612.668 128.82C614.643 127.29 616.238 125.314 617.329 123.049C618.419 120.784 618.974 118.291 618.949 115.77L618.816 110.961Z" fill="black"/>
<path d="M721.723 151.298V98.0737C721.723 91.4634 720.197 86.6633 717.146 83.6734C714.094 80.6834 709.26 79.1704 702.642 79.1344C699.041 79.1531 695.475 79.8588 692.131 81.2148C688.753 82.4948 685.679 84.4833 683.109 87.0506C680.959 88.9962 679.231 91.375 678.035 94.0356C676.839 96.6962 676.202 99.5804 676.164 102.505V151.136H651.495V61.519H675.658V75.9463C679.893 70.4564 685.331 66.0447 691.54 63.0618C697.749 60.079 704.557 58.6071 711.424 58.7632C722.69 58.7632 731.321 61.7171 737.317 67.6249C743.314 73.5328 746.321 81.9712 746.339 92.9404V151.298H721.723Z" fill="black"/>
<path d="M819.866 149.191C812.002 151.73 803.795 153.006 795.543 152.973C784.597 152.973 776.614 150.424 771.593 145.327C766.572 140.23 764.088 132.124 764.141 121.011V80.674H747.403V61.5997H764.141V37.8242H788.811V61.6807H817.125V80.7551H788.917V120.228C788.775 122 788.98 123.784 789.519 125.476C790.057 127.169 790.92 128.736 792.057 130.089C793.423 131.259 795.003 132.143 796.706 132.69C798.41 133.237 800.203 133.437 801.983 133.277C806.937 133.24 811.856 132.429 816.566 130.873L819.866 149.191Z" fill="black"/>
<path d="M887.433 87.5641C886.881 85.7534 885.964 84.0788 884.741 82.6465C883.518 81.2141 882.015 80.055 880.328 79.2426C875.621 77.2239 870.529 76.3008 865.426 76.5409C851.712 76.5409 844.864 79.6299 844.881 85.8079C844.875 87.0336 845.236 88.2323 845.915 89.2455C846.595 90.2586 847.561 91.0384 848.687 91.4816C853.376 93.3095 858.277 94.5172 863.27 95.0749L874.686 96.8041C882.616 97.747 890.401 99.6799 897.865 102.559C902.491 104.293 906.497 107.4 909.361 111.475C911.736 115.558 912.918 120.243 912.768 124.983C912.97 129.298 912.015 133.587 910.005 137.394C907.994 141.2 905.003 144.381 901.351 146.597C893.714 151.461 882.484 153.892 867.581 153.892C852.679 153.892 840.97 151.325 832.8 146.165C828.819 143.617 825.475 140.165 823.032 136.082C820.589 131.998 819.114 127.394 818.722 122.633H842.406C844.269 131.224 852.546 135.52 867.235 135.52C872.842 135.822 878.455 135.062 883.788 133.278C885.287 132.793 886.595 131.834 887.519 130.541C888.443 129.248 888.935 127.689 888.924 126.091C888.887 124.794 888.462 123.538 887.707 122.491C886.951 121.444 885.9 120.655 884.692 120.228C879.879 118.355 874.84 117.147 869.71 116.635L859.065 115.095C845.281 112.916 835.594 109.682 830.005 105.396C824.417 101.109 821.649 94.7957 821.703 86.4563C821.618 82.3359 822.645 78.2703 824.671 74.699C826.697 71.1277 829.646 68.1865 833.199 66.1932C840.881 61.384 851.614 58.9795 865.399 58.9795C878.758 58.9795 889.083 61.0688 896.375 65.2475C899.988 67.3321 903.134 70.1574 905.612 73.5436C908.091 76.9299 909.848 80.803 910.772 84.9163L887.433 87.5641Z" fill="black"/>
<path d="M945.58 75.6491C935.809 75.5351 926.483 71.4867 919.652 64.3939C912.82 57.301 909.042 47.7443 909.149 37.8246C909.042 27.9048 912.82 18.3481 919.652 11.2553C926.483 4.16243 935.809 0.114014 945.58 0C950.422 0.0494073 955.208 1.06721 959.663 2.9952C964.118 4.92319 968.155 7.72355 971.543 11.2363C974.931 14.749 977.604 18.9053 979.41 23.4675C981.215 28.0296 982.117 32.9083 982.065 37.8246C982.117 42.7409 981.215 47.6195 979.41 52.1817C977.604 56.7438 974.931 60.9001 971.543 64.4128C968.155 67.9256 964.118 70.7259 959.663 72.6539C955.208 74.5819 950.422 75.5997 945.58 75.6491ZM945.58 7.59192C941.699 7.62723 937.862 8.43884 934.29 9.98036C930.718 11.5219 927.48 13.7631 924.761 16.5759C922.042 19.3886 919.896 22.7178 918.446 26.3731C916.995 30.0284 916.269 33.938 916.307 37.8786C916.269 41.8192 916.995 45.7288 918.446 49.3841C919.896 53.0394 922.042 56.3685 924.761 59.1813C927.48 61.9941 930.718 64.2353 934.29 65.7768C937.862 67.3183 941.699 68.1299 945.58 68.1653C949.461 68.1299 953.298 67.3183 956.87 65.7768C960.442 64.2353 963.68 61.9941 966.399 59.1813C969.118 56.3685 971.264 53.0394 972.714 49.3841C974.165 45.7288 974.891 41.8192 974.853 37.8786C974.906 33.929 974.189 30.0077 972.745 26.34C971.301 22.6722 969.157 19.3302 966.437 16.506C963.717 13.6817 960.474 11.4308 956.895 9.88254C953.316 8.33425 949.47 7.51909 945.58 7.48387V7.59192Z" fill="black"/>
<path d="M957.502 53.0627V32.2051L948.081 53.0627H942.999L933.551 32.4213V53.1167H927.484V22.5059H935.175L945.686 45.7409L956.145 22.5059H963.649V53.1167L957.502 53.0627Z" fill="black"/>
</g>
<defs>
<clipPath id="clip0_4216_2">
<rect width="982" height="154" fill="white"/>
</clipPath>
</defs>
</svg>
